<?xml version="1.0" encoding="UTF-8" standalone="no"?>
<!-- Created with Inkscape (http://www.inkscape.org/) -->

<svg
   version="1.1"
   id="svg1"
   width="250"
   height="250"
   viewBox="0 0 250 250"
   sodipodi:docname="Gemini_Generated_Image_cbjpi2cbjpi2cbjp.png"
   inkscape:export-filename="Gemini_Generated_Image_cbjpi2cbjpi2cbjp.svg"
   inkscape:export-xdpi="96"
   inkscape:export-ydpi="96"
   xmlns:inkscape="http://www.inkscape.org/namespaces/inkscape"
   xmlns:sodipodi="http://sodipodi.sourceforge.net/DTD/sodipodi-0.dtd"
   xmlns="http://www.w3.org/2000/svg"
   xmlns:svg="http://www.w3.org/2000/svg">
  <defs
     id="defs1" />
  <sodipodi:namedview
     id="namedview1"
     pagecolor="#505050"
     bordercolor="#eeeeee"
     borderopacity="1"
     inkscape:showpageshadow="0"
     inkscape:pageopacity="0"
     inkscape:pagecheckerboard="0"
     inkscape:deskcolor="#505050">
    <inkscape:page
       x="0"
       y="0"
       width="250"
       height="250"
       id="page2"
       margin="0"
       bleed="0" />
  </sodipodi:namedview>
  <g
     inkscape:groupmode="layer"
     inkscape:label="Image"
     id="g1">
    <path
       style="fill:#ffffff;stroke-width:0.342345"
       d="m 21.767936,235.6791 -1.79731,-0.12574 v -9.73893 -9.73894 h 2.05407 2.05407 l 0.0287,6.07662 c 0.0158,3.34214 0.0433,6.69284 0.0612,7.446 0.0732,3.08817 -0.10602,6.3294 -0.34664,6.27005 -0.14121,-0.0348 -1.06554,-0.11991 -2.05407,-0.18906 z m 8.30186,-1.6e-4 -1.71172,-0.11922 0.0958,-9.74212 0.0958,-9.74211 h 2.09165 c 2.45321,0 1.76151,-0.7032 6.87562,6.98994 l 3.85013,5.79174 0.093,-6.3583 0.093,-6.3583 1.78988,-0.14189 c 0.98443,-0.078 1.90542,-0.0836 2.04664,-0.0123 0.14121,0.0713 0.25676,4.51808 0.25676,9.88182 v 9.75227 l -2.31083,-0.10123 -2.31083,-0.10123 -4.10814,-6.05259 -4.10814,-6.05258 -0.23137,1.43093 c -0.12726,0.78701 -0.20429,3.57475 -0.17117,6.19498 0.0374,2.96209 -0.0693,4.78208 -0.28215,4.81175 -0.18829,0.0262 -1.11262,-0.006 -2.05407,-0.0715 z m 21.82449,1.6e-4 -1.79731,-0.12574 v -9.73893 -9.73894 h 3.3818 3.38181 l 0.34365,1.28379 c 0.502,1.87539 3.13593,10.78161 3.3664,11.38297 0.10825,0.28243 1.07987,-2.41353 2.15916,-5.99104 l 1.96235,-6.50455 3.3151,-0.098 3.31511,-0.098 2.6e-4,9.85481 2.6e-4,9.85481 -1.45523,-0.0623 c -0.80037,-0.0343 -1.72175,-0.0728 -2.04752,-0.0856 -0.53916,-0.0212 -0.60058,-0.67585 -0.68469,-7.29807 l -0.0924,-7.27483 -1.13601,4.10814 c -0.6248,2.25947 -1.54913,5.5327 -2.05407,7.27383 l -0.91806,3.1657 -2.11894,0.001 -2.11894,10e-4 -0.85793,-2.82434 c -0.47186,-1.55339 -1.44403,-4.8828 -2.16037,-7.39869 l -1.30244,-4.57441 -0.0921,7.56986 c -0.0507,4.16342 -0.20473,7.54136 -0.34234,7.50653 -0.13762,-0.0348 -1.059,-0.11991 -2.04752,-0.18906 z m 29.14565,-0.30124 c -2.02066,-0.71663 -4.20588,-2.72943 -5.13916,-4.73368 -0.63543,-1.36458 -0.80665,-2.3154 -0.80928,-4.49412 -0.004,-3.69013 0.70503,-5.68038 2.75619,-7.73154 2.1082,-2.1082 4.40264,-2.8283 8.33539,-2.61601 3.3011,0.17819 4.93513,0.86667 6.93782,2.92316 1.98767,2.04106 2.62769,4.12861 2.44396,7.97144 -0.12444,2.60273 -0.28287,3.23886 -1.16002,4.65762 -1.19004,1.92483 -3.40252,3.71859 -5.20361,4.2188 -1.81805,0.50492 -6.50256,0.39261 -8.16129,-0.19567 z m 6.81156,-3.33921 c 2.43641,-1.03815 3.45927,-3.18326 3.27337,-6.8648 -0.19089,-3.78002 -1.82699,-5.6618 -5.16317,-5.93846 -2.33509,-0.19364 -3.98006,0.484 -5.26531,2.16906 -0.92119,1.20773 -0.98658,1.50122 -0.98658,4.42787 0,2.92597 0.0655,3.22033 0.98565,4.42666 0.54211,0.71074 1.46644,1.5015 2.05407,1.75726 1.38856,0.60433 3.71228,0.61454 5.10197,0.0224 z m 34.737004,3.619 -1.96848,-0.10267 v -9.73975 -9.73974 h 2.22524 2.22524 v 9.73662 c 0,5.35514 -0.11554,9.78423 -0.25676,9.84242 -0.14121,0.0582 -1.14257,0.0596 -2.22524,0.003 z m 14.20731,0.0103 -7.27482,-0.0924 v -9.75002 -9.75002 h 2.04787 2.04787 l 0.0918,8.13069 0.0918,8.13069 5.39193,0.0943 5.39193,0.0943 v 1.51165 c 0,0.83141 -0.11554,1.55926 -0.25676,1.61745 -0.14122,0.0582 -3.53043,0.0642 -7.53159,0.0134 z m 17.37385,0.0187 c 9e-5,-0.0406 1.06519,-2.58248 2.36691,-5.64869 1.30171,-3.06623 3.14126,-7.42361 4.08789,-9.68309 l 1.72115,-4.10814 2.50224,-0.092 2.50224,-0.092 2.19276,4.8848 c 1.20601,2.68664 3.17022,7.02674 4.36489,9.64466 1.19468,2.61791 2.17215,4.88057 2.17215,5.02813 0,0.30719 -2.44556,0.3664 -3.86129,0.0935 -0.77637,-0.14967 -1.13537,-0.58922 -1.95171,-2.38962 l -1.00035,-2.20622 -4.35759,0.096 -4.35759,0.0959 -0.88884,2.18656 -0.88884,2.18656 -2.30209,0.0387 c -1.26614,0.0213 -2.30201,0.006 -2.30193,-0.0351 z m 13.69395,-7.91961 c 0,-0.55459 -2.68958,-6.71106 -2.97017,-6.79874 -0.15516,-0.0485 -0.78035,1.27676 -1.38932,2.94499 -0.60897,1.66823 -1.20316,3.28317 -1.32042,3.58874 -0.18652,0.48605 0.15566,0.5556 2.73335,0.5556 1.62061,0 2.94656,-0.13077 2.94656,-0.29059 z m 11.44333,7.89186 c -0.69887,-0.0999 -0.70889,-0.23571 -0.64409,-8.72979 0.0362,-4.74557 0.0861,-9.12899 0.11081,-9.74093 l 0.045,-1.11262 h 6.60318 c 6.16693,0 6.70411,0.0509 8.13069,0.77027 1.96987,0.99335 3.20665,3.19379 2.90648,5.17111 -0.35388,2.33104 -1.10036,3.31216 -3.23929,4.25751 l -1.97001,0.87069 1.16733,1.02493 c 1.05254,0.92415 5.06836,6.25086 5.43086,7.20367 0.0995,0.26147 -0.68133,0.41474 -2.41177,0.47343 l -2.55886,0.0868 -1.74452,-2.58527 c -0.95949,-1.4219 -2.40166,-3.2711 -3.20483,-4.10934 -1.35749,-1.41674 -1.5842,-1.52406 -3.21985,-1.52406 h -1.75955 l -0.0965,4.01522 -0.0965,4.01521 -1.36938,0.007 c -0.75316,0.004 -1.68884,-0.0383 -2.07929,-0.0942 z m 11.61878,-12.0766 c 1.14488,-0.90056 1.23345,-2.6498 0.18239,-3.6023 -0.59475,-0.53899 -1.3671,-0.67227 -4.45048,-0.76804 l -3.73085,-0.11588 v 2.59788 2.59788 h 3.54846 c 3.07149,0 3.66969,-0.0954 4.45048,-0.70954 z m 16.97264,12.01173 -0.87546,-0.17599 2.84499,-6.67572 c 1.56474,-3.67165 3.41228,-8.01674 4.10564,-9.65575 1.38243,-3.26789 1.38082,-3.26677 4.43491,-3.06704 l 1.76068,0.11515 2.14067,4.84885 c 1.17737,2.66687 3.11954,7.04782 4.31594,9.73545 1.1964,2.68763 2.17548,4.92143 2.17575,4.964 2.6e-4,0.0426 -1.09701,3.5e-4 -2.43839,-0.0938 l -2.43888,-0.17118 -0.66666,-1.71172 c -0.36667,-0.94145 -0.79039,-1.83853 -0.94161,-1.9935 -0.34286,-0.35139 -5.86528,-0.60457 -7.75238,-0.35541 -1.34535,0.17762 -1.42621,0.25975 -2.09011,2.1227 -0.67774,1.90181 -0.71867,1.94121 -2.19512,2.11392 -0.82748,0.0968 -1.89846,0.0968 -2.37997,0 z m 12.53941,-8.13551 c -0.88465,-2.40679 -2.72229,-6.91579 -2.79024,-6.84637 -0.12573,0.12843 -2.88267,7.09204 -2.88267,7.28119 0,0.0904 1.32595,0.16429 2.94656,0.16429 2.6619,0 2.92528,-0.0579 2.72635,-0.59911 z M 99.052286,225.83239 v -9.75683 h 6.396474 c 5.76982,0 6.53994,0.0695 7.86102,0.70898 1.75405,0.84912 2.85976,2.49429 2.85976,4.25502 0,1.39134 -1.03959,3.39481 -1.94104,3.74073 -0.44685,0.17147 -0.27676,0.45462 0.85505,1.42341 1.59257,1.36317 2.32212,3.19957 1.985,4.99656 -0.3092,1.64822 -2.04438,3.60982 -3.56728,4.03278 -0.69778,0.19379 -4.23426,0.35322 -7.85884,0.35427 l -6.590144,0.002 z m 11.974734,6.22847 c 2.04368,-0.70123 2.33922,-3.45479 0.46257,-4.30984 -0.51181,-0.2332 -2.51822,-0.51391 -4.45869,-0.62379 l -3.52812,-0.1998 v 2.79034 2.79034 l 3.16669,-0.0193 c 1.74168,-0.0106 3.70257,-0.2032 4.35755,-0.42793 z m -0.97347,-8.46085 c 2.27714,-0.63251 2.5528,-3.3081 0.4242,-4.11739 -0.47154,-0.17928 -2.23381,-0.32596 -3.91616,-0.32596 h -3.05881 v 2.39642 2.39641 l 2.65317,-0.002 c 1.45924,-10e-4 3.21316,-0.15746 3.8976,-0.34757 z m 37.61171,2.23238 v -9.75683 h 2.26804 2.26803 l -0.21396,1.06983 c -0.11768,0.5884 -0.21397,4.97897 -0.21397,9.75682 v 8.68701 h -2.05407 -2.05407 z m 52.72111,0 v -9.75683 h 2.22524 2.22525 v 9.75683 9.75683 h -2.22525 -2.22524 z M 43.250076,134.98824 V 78.198009 l 11.04062,0.0418 11.04062,0.0418 v 56.658071 56.65807 l -11.04062,0.0903 -11.04062,0.0903 z m 32.52276,0.006 V 78.155359 l 21.65332,-0.0296 c 23.011274,-0.0314 30.979844,0.26392 36.175434,1.34088 5.44624,1.12891 11.25513,4.43652 14.32673,8.15772 4.58924,5.55981 6.48446,10.617466 6.83349,18.236231 0.45812,9.99986 -3.57806,18.48462 -11.20468,23.5542 -1.22389,0.81354 -2.19496,1.56242 -2.15793,1.66419 0.037,0.10176 0.9265,0.53422 1.97662,0.96102 3.99614,1.62415 8.74461,5.41466 11.13444,8.88817 1.57653,2.29139 3.31498,6.14645 4.16954,9.24606 0.64512,2.33991 0.75527,3.61125 0.75636,8.7298 0.001,5.4358 -0.0843,6.30804 -0.92206,9.41157 -2.13525,7.91008 -6.2938,13.99585 -12.15429,17.78698 -2.98412,1.93042 -4.81531,2.72782 -8.31811,3.62216 -6.67809,1.70507 -8.08219,1.78113 -35.99389,1.94969 l -26.274974,0.15868 z m 52.200694,36.75766 c 3.38607,-0.87183 4.90994,-1.60217 6.75563,-3.23776 4.30338,-3.81349 5.62686,-12.34209 2.85486,-18.39693 -1.15118,-2.51451 -3.6371,-5.05231 -6.14419,-6.27242 -3.68453,-1.79313 -6.68975,-2.09836 -21.86043,-2.22029 l -13.608214,-0.10936 v 15.56414 15.56415 l 14.806424,-0.13814 c 12.8331,-0.11973 15.12487,-0.22013 17.19592,-0.75338 z m -2.46934,-49.24493 c 4.29095,-1.23991 6.61619,-3.00688 8.24179,-6.26299 1.94222,-3.89029 1.89809,-8.92992 -0.11397,-13.017 -1.79376,-3.643655 -4.78841,-5.550431 -9.87195,-6.285741 -1.2563,-0.18172 -8.02273,-0.33345 -15.03652,-0.33718 l -12.752354,-0.007 v 13.378521 13.37852 l 13.779384,-0.13843 c 11.54912,-0.11603 14.09892,-0.23077 15.75362,-0.70892 z m 42.70177,12.64295 V 78.530719 l 1.08422,-0.15914 c 0.59632,-0.0875 5.53485,-0.14351 10.97451,-0.12444 l 9.89029,0.0347 0.0661,46.901241 0.0661,46.90124 19.51366,0.067 19.51365,0.067 -0.0511,0.96001 c -0.0281,0.528 -0.0666,4.92692 -0.0856,9.77538 l -0.0345,8.81538 H 198.67465 168.20596 Z M 29.342396,66.592399 c -2.04769,-1.43943 -5.2409,-3.69914 -7.096,-5.02158 l -3.372925,-2.40445 2.174715,-0.99589 c 1.19609,-0.54774 4.17743,-1.89411 6.6252,-2.99194 2.44777,-1.09783 7.3005,-3.29291 10.78386,-4.87796 3.48336,-1.58505 8.29759,-3.77368 10.69828,-4.86363 l 4.3649,-1.98171 V 31.341219 19.227202 h 16.09021 16.0902 v 5.819867 c 0,3.82695 0.12278,5.81986 0.35855,5.81986 0.1972,0 7.63036,-3.68285 16.518134,-8.18411 l 16.1596,-8.184113 3.42345,1.533013 c 1.8829,0.843163 5.58022,2.511779 8.21628,3.708045 9.12693,4.141875 22.61969,10.191845 28.24345,12.663985 3.10678,1.3657 15.97039,7.13696 28.5858,12.82503 12.6154,5.68806 24.16954,10.88791 25.67586,11.5552 1.50632,0.66729 2.86703,1.33009 3.0238,1.47289 0.24338,0.22167 -2.57633,2.64642 -10.49393,9.02399 l -1.64319,1.32359 -2.80376,-1.27486 c -1.54206,-0.70118 -8.42676,-3.78177 -15.29934,-6.84576 -6.87257,-3.06399 -13.88208,-6.19147 -15.57669,-6.94995 -3.13459,-1.40301 -34.77771,-15.42095 -44.9643,-19.91926 l -5.59465,-2.47054 -1.93694,0.85538 c -1.06532,0.47046 -7.25184,3.19968 -13.74784,6.06494 -6.495994,2.86525 -19.205554,8.48138 -28.243454,12.48028 -9.0379,3.99891 -22.22728,9.83442 -29.30972,12.96781 -7.08244,3.13338 -12.95576,5.69706 -13.05182,5.69706 -0.0961,0 -1.85004,-1.17772 -3.89773,-2.61715 z"
       id="path1" />
  </g>
</svg>
